<mxfile host="Electron" modified="2023-11-14T03:17:45.231Z" agent="Mozilla/5.0 (Macintosh; Intel Mac OS X 10_15_7) AppleWebKit/537.36 (KHTML, like Gecko) draw.io/22.0.3 Chrome/114.0.5735.289 Electron/25.8.4 Safari/537.36" etag="DQn80Qn43oMPTv-Irb1t" version="22.0.3" type="device">
  <diagram name="Page-1" id="OrCs-6wGaaD4bRuWvKJ6">
    <mxGraphModel dx="1114" dy="854" grid="1" gridSize="10" guides="1" tooltips="1" connect="1" arrows="1" fold="1" page="1" pageScale="1" pageWidth="850" pageHeight="1100" math="0" shadow="0">
      <root>
        <mxCell id="0" />
        <mxCell id="1" parent="0" />
        <mxCell id="OruLFu9lztuCXzDDEh55-20" value="" style="rounded=1;whiteSpace=wrap;html=1;fillColor=none;strokeWidth=5;" vertex="1" parent="1">
          <mxGeometry x="420" y="182" width="250" height="315" as="geometry" />
        </mxCell>
        <mxCell id="OruLFu9lztuCXzDDEh55-15" value="" style="rounded=1;whiteSpace=wrap;html=1;fillColor=none;strokeWidth=5;" vertex="1" parent="1">
          <mxGeometry x="140" y="185" width="230" height="160" as="geometry" />
        </mxCell>
        <mxCell id="OruLFu9lztuCXzDDEh55-7" value="&lt;font style=&quot;font-size: 24px;&quot;&gt;unit tests&lt;/font&gt;" style="rounded=1;whiteSpace=wrap;html=1;fillColor=#1ba1e2;fontColor=#ffffff;strokeColor=#006EAF;strokeWidth=5;" vertex="1" parent="1">
          <mxGeometry x="160" y="270" width="190" height="60" as="geometry" />
        </mxCell>
        <mxCell id="OruLFu9lztuCXzDDEh55-10" value="&lt;font style=&quot;font-size: 24px;&quot;&gt;log files&lt;/font&gt;" style="rounded=1;whiteSpace=wrap;html=1;fillColor=#1ba1e2;fontColor=#ffffff;strokeColor=#006EAF;strokeWidth=5;" vertex="1" parent="1">
          <mxGeometry x="450" y="345" width="190" height="60" as="geometry" />
        </mxCell>
        <mxCell id="OruLFu9lztuCXzDDEh55-12" value="&lt;span style=&quot;font-size: 24px;&quot;&gt;source code&lt;/span&gt;" style="rounded=1;whiteSpace=wrap;html=1;fillColor=#60a917;fontColor=#ffffff;strokeColor=#2D7600;strokeWidth=5;" vertex="1" parent="1">
          <mxGeometry x="160" y="200" width="190" height="60" as="geometry" />
        </mxCell>
        <mxCell id="OruLFu9lztuCXzDDEh55-13" value="&lt;font style=&quot;font-size: 24px;&quot;&gt;version control&lt;/font&gt;" style="rounded=1;whiteSpace=wrap;html=1;fillColor=#d80073;fontColor=#ffffff;strokeColor=#A50040;strokeWidth=5;" vertex="1" parent="1">
          <mxGeometry x="310" y="80" width="190" height="60" as="geometry" />
        </mxCell>
        <mxCell id="OruLFu9lztuCXzDDEh55-18" value="&lt;font style=&quot;font-size: 24px;&quot;&gt;runtime tests&lt;/font&gt;" style="rounded=1;whiteSpace=wrap;html=1;fillColor=#1ba1e2;fontColor=#ffffff;strokeColor=#006EAF;strokeWidth=5;" vertex="1" parent="1">
          <mxGeometry x="450" y="270" width="190" height="60" as="geometry" />
        </mxCell>
        <mxCell id="OruLFu9lztuCXzDDEh55-19" value="&lt;span style=&quot;font-size: 24px;&quot;&gt;scripts&lt;/span&gt;" style="rounded=1;whiteSpace=wrap;html=1;fillColor=#60a917;fontColor=#ffffff;strokeColor=#2D7600;strokeWidth=5;" vertex="1" parent="1">
          <mxGeometry x="450" y="200" width="190" height="60" as="geometry" />
        </mxCell>
        <mxCell id="OruLFu9lztuCXzDDEh55-21" value="&lt;font style=&quot;font-size: 24px;&quot;&gt;output files&lt;/font&gt;" style="rounded=1;whiteSpace=wrap;html=1;fillColor=#1ba1e2;fontColor=#ffffff;strokeColor=#006EAF;strokeWidth=5;" vertex="1" parent="1">
          <mxGeometry x="450" y="420" width="190" height="60" as="geometry" />
        </mxCell>
        <mxCell id="OruLFu9lztuCXzDDEh55-22" style="edgeStyle=orthogonalEdgeStyle;orthogonalLoop=1;jettySize=auto;html=1;entryX=0.435;entryY=0.031;entryDx=0;entryDy=0;entryPerimeter=0;exitX=0;exitY=0.5;exitDx=0;exitDy=0;strokeWidth=5;curved=1;" edge="1" parent="1" source="OruLFu9lztuCXzDDEh55-13" target="OruLFu9lztuCXzDDEh55-15">
          <mxGeometry relative="1" as="geometry" />
        </mxCell>
        <mxCell id="OruLFu9lztuCXzDDEh55-23" style="edgeStyle=orthogonalEdgeStyle;orthogonalLoop=1;jettySize=auto;html=1;entryX=0.532;entryY=-0.013;entryDx=0;entryDy=0;entryPerimeter=0;exitX=1;exitY=0.5;exitDx=0;exitDy=0;strokeWidth=5;curved=1;" edge="1" parent="1" source="OruLFu9lztuCXzDDEh55-13" target="OruLFu9lztuCXzDDEh55-20">
          <mxGeometry relative="1" as="geometry">
            <mxPoint x="320" y="120" as="sourcePoint" />
            <mxPoint x="250" y="200" as="targetPoint" />
          </mxGeometry>
        </mxCell>
      </root>
    </mxGraphModel>
  </diagram>
</mxfile>
